<?xml version="1.0" encoding="utf-8"?>
<!-- Generator: Adobe Illustrator 17.1.0, SVG Export Plug-In . SVG Version: 6.00 Build 0)  -->
<!DOCTYPE svg PUBLIC "-//W3C//DTD SVG 1.0//EN" "http://www.w3.org/TR/2001/REC-SVG-20010904/DTD/svg10.dtd">
<svg version="1.0" id="Layer_1" xmlns="http://www.w3.org/2000/svg" xmlns:xlink="http://www.w3.org/1999/xlink" x="0px" y="0px"
	 viewBox="0 0 11 10" enable-background="new 0 0 11 10" xml:space="preserve">
<path fill-rule="evenodd" clip-rule="evenodd" fill="#333333" d="M0.3,4.4l4.1-4.1c0.3-0.3,0.7-0.3,1,0c0.3,0.3,0.3,0.7,0,1l-3,3
	h7.7c0.4,0,0.7,0.3,0.7,0.7c0,0.4-0.3,0.7-0.7,0.7H2.5l3,3c0.3,0.3,0.3,0.7,0,1c-0.3,0.3-0.7,0.3-1,0L0.3,5.6C0.1,5.5,0.1,5.2,0.1,5
	C0.1,4.8,0.1,4.5,0.3,4.4z"/>
</svg>
