<?xml version="1.0" encoding="utf-8"?>
<!-- Generator: Adobe Illustrator 17.1.0, SVG Export Plug-In . SVG Version: 6.00 Build 0)  -->
<!DOCTYPE svg PUBLIC "-//W3C//DTD SVG 1.0//EN" "http://www.w3.org/TR/2001/REC-SVG-20010904/DTD/svg10.dtd">
<svg version="1.0" id="Layer_1" xmlns="http://www.w3.org/2000/svg" xmlns:xlink="http://www.w3.org/1999/xlink" x="0px" y="0px"
	 viewBox="0 0 11 10" enable-background="new 0 0 11 10" xml:space="preserve">
<path fill-rule="evenodd" clip-rule="evenodd" fill="#333333" d="M10.7,5.6L6.6,9.8c-0.3,0.3-0.7,0.3-1,0c-0.3-0.3-0.3-0.7,0-1l3-3
	H0.8C0.4,5.7,0.1,5.4,0.1,5c0-0.4,0.3-0.7,0.7-0.7h7.7l-3-3c-0.3-0.3-0.3-0.7,0-1c0.3-0.3,0.7-0.3,1,0l4.1,4.1
	c0.2,0.2,0.2,0.4,0.2,0.6C10.9,5.2,10.9,5.5,10.7,5.6z"/>
</svg>
