<svg xmlns="http://www.w3.org/2000/svg" viewBox="0 0 146 54" style="white-space: pre">
    <path
        fill="#FF1200"
        d="M21.5,2.2h122.3v35.3H39.1L29,47.7V37.5H3.8L21.5,2.2z M20.1,0L0.3,39.7h26.5V53L40,39.7h106V0H20.1zM42.5,10.3c0,0.8-0.7,1.4-1.4,1.4s-1.4-0.6-1.4-1.4c0-0.9,0.6-1.4,1.4-1.4C41.9,8.9,42.5,9.4,42.5,10.3z M40,26.5h2.2V13.2H40V26.5z M47,17.4v9.1h-2.2V13.2h1.8l0.3,1.4c0.5-1.2,1.6-1.4,2.3-1.5c2.4-0.1,4.4,2.1,4.4,4.4v9.1h-2.2v-9.1c0-1.2-1-2.2-2.2-2.2C48,15.3,47,16.3,47,17.4 M58.1,26.5h-2.2V12.1c0-2.6,2.5-4.4,5.2-4.4v2.2c-1.6,0-3,1-3,2.2v4.1h2.7v2.2h-2.7V26.5z M72.1,22.2c0,3-2.3,4.4-4.5,4.4c-2.3,0-4.5-1.4-4.5-4.4v-4.8c0-3,2.2-4.4,4.5-4.4s4.5,1.4,4.5,4.4V22.2z M69.8,17.4c0-1.4-1.1-2.2-2.3-2.2c-1.1,0-2.3,0.7-2.3,2.2v4.8c0,1.4,1.2,2.1,2.3,2.1c1.1,0,2.3-0.7,2.3-2.1V17.4z M78.8,31.9c-1,0-2.4-0.5-3.5-1.5l1.3-1.8c0.8,0.7,1.7,1,2.2,1c1.2,0,2.2-0.9,2.2-2.1v-2.3c-0.4,1.1-1.5,1.4-2.2,1.4c-2.3,0-4.4-1.5-4.4-4.1v-5.3c0-2.2,2.2-4.3,4.4-4.1c0.9,0.1,2,0.4,2.3,1.7l0.2-1.6h1.8v14.4C83.3,30.1,81.2,31.9,78.8,31.9z M76.7,22.5c-0.1,1.3,1.1,1.9,2.3,1.9c1,0,2.1-0.7,2.1-1.8v-5.4c0-1-1.2-1.8-2.2-1.8c-1.1,0-2.2,0.8-2.2,1.9C76.7,17.3,76.7,22.5,76.7,22.5z M85.7,26.5V13.3h1.8l0.2,1.4c0.8-2,2.9-2,4.4-0.8l-0.8,2C90,15,88,15.2,87.8,17v9.5H85.7z M93,22.2v-0.8c0-2.3,1.8-4.3,4.3-4.3c0.9,0,2,0.6,2.3,1.5l-0.1-1.2c0-1.2-1-2.1-2.2-2.1c-0.6,0-1.4,0.3-2.1,1L94,14.5c0.9-0.9,2.2-1.5,3.3-1.5c2.3,0,4.4,2,4.4,4.4v9H100L99.8,25c-0.3,1.2-1.7,1.6-2.4,1.6C95,26.7,93,24.6,93,22.2 M97.4,24.4c1,0,2.2-0.9,2.2-1.8v-1.4c0-1.1-1-1.9-2.2-1.9s-2.1,0.9-2.1,2.1v0.8C95.2,23.4,96.2,24.4,97.4,24.4 M106.4,26.5h-2.2V13.2h1.7l0.3,1.3c0.6-1.1,1.6-1.4,2.4-1.5c1.1,0,2.6,0.5,3.3,2.2c0.7-1.7,2-2.2,3.3-2.2c2.4,0,4.3,1.9,4.3,4.4v9.1h-2.2v-9.1c0-3-4.3-2.9-4.3,0v9.1h-2.2v-9.1c0-1.2-1-2.2-2.2-2.2s-2.1,1-2.1,2.2v9.1H106.4z"
    />
</svg>
