<?xml version="1.0" encoding="utf-8"?>
<!-- Generator: Adobe Illustrator 17.1.0, SVG Export Plug-In . SVG Version: 6.00 Build 0)  -->
<!DOCTYPE svg PUBLIC "-//W3C//DTD SVG 1.0//EN" "http://www.w3.org/TR/2001/REC-SVG-20010904/DTD/svg10.dtd">
<svg version="1.0" id="Layer_1" xmlns="http://www.w3.org/2000/svg" xmlns:xlink="http://www.w3.org/1999/xlink" x="0px" y="0px"
	 viewBox="0 0 10 11" enable-background="new 0 0 10 11" xml:space="preserve">
<path fill-rule="evenodd" clip-rule="evenodd" fill="#333333" d="M4.4,10.7L0.2,6.6c-0.3-0.3-0.3-0.7,0-1c0.3-0.3,0.7-0.3,1,0l3,3
	V0.8c0-0.4,0.3-0.7,0.7-0.7c0.4,0,0.7,0.3,0.7,0.7v7.7l3-3c0.3-0.3,0.7-0.3,1,0c0.3,0.3,0.3,0.7,0,1l-4.1,4.1
	c-0.2,0.2-0.4,0.2-0.6,0.2C4.8,10.9,4.5,10.9,4.4,10.7z"/>
</svg>
