<?xml version="1.0" encoding="utf-8"?>
<!DOCTYPE svg PUBLIC "-//W3C//DTD SVG 1.0//EN" "http://www.w3.org/TR/2001/REC-SVG-20010904/DTD/svg10.dtd">
<svg version="1.0" id="Layer_1" xmlns="http://www.w3.org/2000/svg" xmlns:xlink="http://www.w3.org/1999/xlink" x="0px" y="0px"
	 viewBox="0 0 23 9" enable-background="new 0 0 23 9" xml:space="preserve">
<g>
	<ellipse fill="#F8B558" cx="2.5" cy="2.5" rx="0.8" ry="0.8"/>
	<path fill="#F8B558" d="M9.4,7C9.3,7,9.1,6.9,9.1,6.8C9,6.6,9,6.3,9.2,6.2l7.4-2.8c0.1-0.1,0.3-0.1,0.4,0l5.6,2.2
		c0.2,0.1,0.2,0.4,0.1,0.6c-0.1,0.2-0.4,0.2-0.5,0.1l-5.4-2L9.6,7C9.5,7,9.5,7,9.4,7z"/>
	<path fill="#F8B558" d="M11.5,8.8c-0.1,0-0.2,0-0.3-0.1L6.9,5.4L5.2,6.9C5,7,4.8,7.1,4.7,7L2.8,6.2L0.8,7.8C0.6,8,0.5,7.8,0.3,7.6
		C0.1,7.5,0.2,7.2,0.3,7l2.1-1.7C2.6,5.3,2.8,5.2,3,5.3l1.8,0.8l1.7-1.6c0.2-0.2,0.4-0.2,0.6,0l4.6,3.6c0.2,0.1,0.2,0.4,0,0.6
		C11.7,8.8,11.6,8.8,11.5,8.8z"/>
	<path fill="#F8B558" d="M23,8.6C23,8.8,22.8,9,22.6,9H0.4C0.2,9,0,8.8,0,8.6V0.4C0,0.2,0.2,0,0.4,0h22.2C22.8,0,23,0.2,23,0.4V8.6z
		 M0.8,8.2h21.4V0.8H0.8V8.2z"/>
</g>
</svg>
