<?xml version="1.0" encoding="utf-8"?>
<!DOCTYPE svg PUBLIC "-//W3C//DTD SVG 1.0//EN" "http://www.w3.org/TR/2001/REC-SVG-20010904/DTD/svg10.dtd">
<svg version="1.0" id="Layer_1" xmlns="http://www.w3.org/2000/svg" xmlns:xlink="http://www.w3.org/1999/xlink" x="0px" y="0px"
	 viewBox="0 0 16 13" enable-background="new 0 0 16 13" xml:space="preserve">
<g>
	<g>
		<g>
			<g>
				<g>
					<g>
						<path fill="#F8B558" d="M15,12.6H1c-0.3,0-0.5-0.2-0.5-0.5V1c0-0.3,0.2-0.5,0.5-0.5H15c0.3,0,0.5,0.2,0.5,0.5V12
							C15.6,12.3,15.3,12.6,15,12.6z M1.5,11.5h13v-10h-13V11.5z"/>
					</g>
					<ellipse fill="#F8B558" cx="4.1" cy="4.1" rx="1" ry="1"/>
				</g>
			</g>
		</g>
	</g>
	<path fill="#F8B558" d="M1.2,11.1c-0.1,0-0.3-0.1-0.4-0.2c-0.2-0.2-0.2-0.5,0-0.7L3.9,7c0.2-0.2,0.5-0.2,0.7-0.1l3.1,2.3l2.9-3.9
		c0.2-0.2,0.5-0.3,0.7-0.1L15,7.7c0.2,0.2,0.3,0.5,0.1,0.7c-0.2,0.2-0.5,0.3-0.7,0.1l-3.2-2.1l-2.9,3.9c-0.1,0.1-0.2,0.2-0.3,0.2
		c-0.1,0-0.3,0-0.4-0.1L4.4,8.1l-2.8,2.9C1.4,11,1.3,11.1,1.2,11.1z"/>
</g>
</svg>
