<?xml version="1.0" encoding="utf-8"?>
<!-- Generator: Adobe Illustrator 17.1.0, SVG Export Plug-In . SVG Version: 6.00 Build 0)  -->
<!DOCTYPE svg PUBLIC "-//W3C//DTD SVG 1.0//EN" "http://www.w3.org/TR/2001/REC-SVG-20010904/DTD/svg10.dtd">
<svg version="1.0" id="Layer_1" xmlns="http://www.w3.org/2000/svg" xmlns:xlink="http://www.w3.org/1999/xlink" x="0px" y="0px"
	 viewBox="0 0 22 13" enable-background="new 0 0 22 13" xml:space="preserve">
<g>
	<g>
		<g>
			<g>
				<g>
					<g>
						<g>
							<path fill="#C8C8C8" d="M21.3,1.5h-3.1c0,0.4,0,0.7,0,1.1h2.5v7.9h-2.5c0,0.4,0,0.7,0,1.1h3.1c0.3,0,0.5-0.2,0.5-0.5V2
								C21.8,1.7,21.6,1.5,21.3,1.5z"/>
						</g>
					</g>
					<g>
						<g>
							<path fill="#C8C8C8" d="M0.7,11.5h3.1c0-0.4,0-0.7,0-1.1H1.2V2.5h2.5c0-0.4,0-0.7,0-1.1H0.7C0.4,1.5,0.2,1.7,0.2,2v9
								C0.2,11.3,0.4,11.5,0.7,11.5z"/>
						</g>
					</g>
					<g>
						<path fill="#F8B558" d="M18.1,12.6H4.1c-0.3,0-0.5-0.2-0.5-0.5V1c0-0.3,0.2-0.5,0.5-0.5h14.1c0.3,0,0.5,0.2,0.5,0.5V12
							C18.6,12.3,18.4,12.6,18.1,12.6z M4.6,11.5h13v-10h-13V11.5z"/>
					</g>
					<ellipse fill="#F8B558" cx="7.2" cy="4.1" rx="1" ry="1"/>
				</g>
			</g>
		</g>
	</g>
	<path fill="#F8B558" d="M4.2,11.1c-0.1,0-0.3-0.1-0.4-0.2c-0.2-0.2-0.2-0.5,0-0.7L7,7c0.2-0.2,0.5-0.2,0.7-0.1l3.1,2.3l2.9-3.9
		c0.2-0.2,0.5-0.3,0.7-0.1l3.6,2.4c0.2,0.2,0.3,0.5,0.1,0.7c-0.2,0.2-0.5,0.3-0.7,0.1l-3.2-2.1l-2.9,3.9c-0.1,0.1-0.2,0.2-0.3,0.2
		c-0.1,0-0.3,0-0.4-0.1L7.4,8.1l-2.8,2.9C4.5,11,4.4,11.1,4.2,11.1z"/>
</g>
</svg>
