<?xml version="1.0" encoding="utf-8"?>
<!DOCTYPE svg PUBLIC "-//W3C//DTD SVG 1.1//EN" "http://www.w3.org/Graphics/SVG/1.1/DTD/svg11.dtd">
<svg version="1.1" xmlns="http://www.w3.org/2000/svg" xmlns:xlink="http://www.w3.org/1999/xlink" x="0px" y="0px"
	 viewBox="0 0 28.3 18.6" enable-background="new 0 0 28.3 18.6" xml:space="preserve">
<g>
	<path fill="#F9B659" d="M0,9l8-4.9v2.1c0,0.2,0,0.3-0.1,0.4C7.8,6.7,7.7,6.9,7.5,7L3.9,9.1C3.7,9.2,3.6,9.3,3.4,9.4
		C3.2,9.5,3,9.5,2.8,9.6C3,9.6,3.2,9.7,3.4,9.8C3.6,9.8,3.7,9.9,3.9,10l3.7,2.2c0.2,0.1,0.3,0.2,0.3,0.3C7.9,12.7,8,12.8,8,13V15
		l-8-4.9V9z"/>
	<path fill="#F9B659" d="M12.5,17.5c-0.1,0.2-0.1,0.3-0.2,0.5c-0.1,0.1-0.2,0.2-0.3,0.3c-0.1,0.1-0.2,0.2-0.4,0.2
		c-0.1,0-0.3,0.1-0.4,0.1h-1L16,1c0.1-0.3,0.3-0.6,0.5-0.8S16.9,0,17.2,0h1.1L12.5,17.5z"/>
	<path fill="#F9B659" d="M20.4,15V13c0-0.2,0-0.3,0.1-0.4c0.1-0.1,0.2-0.2,0.3-0.3l3.7-2.2c0.3-0.2,0.6-0.3,1-0.4
		c-0.2-0.1-0.4-0.1-0.5-0.2c-0.2-0.1-0.3-0.1-0.5-0.2L20.8,7c-0.2-0.1-0.3-0.2-0.3-0.3c-0.1-0.1-0.1-0.3-0.1-0.4V4.1l8,4.9v1.2
		L20.4,15z"/>
</g>
</svg>
