<?xml version="1.0" encoding="utf-8"?>
<!DOCTYPE svg PUBLIC "-//W3C//DTD SVG 1.0//EN" "http://www.w3.org/TR/2001/REC-SVG-20010904/DTD/svg10.dtd">
<svg version="1.0" xmlns="http://www.w3.org/2000/svg" xmlns:xlink="http://www.w3.org/1999/xlink" x="0px" y="0px"
	 viewBox="0 0 13 18" enable-background="new 0 0 13 18" xml:space="preserve">
<g>
	<path fill="#F8B558" d="M12.5,10.7H0.5c-0.2,0-0.5-0.2-0.5-0.5V0.7c0-0.2,0.2-0.5,0.5-0.5h12.1c0.2,0,0.5,0.2,0.5,0.5v9.5
		C13,10.5,12.8,10.7,12.5,10.7z M0.9,9.8h11.2V1.2H0.9V9.8z"/>
	<ellipse fill="#F8B558" cx="3.2" cy="3.4" rx="0.9" ry="0.9"/>
	<path fill="#F8B558" d="M0.9,9.4c-0.1,0-0.2,0-0.3-0.1c-0.2-0.2-0.2-0.5,0-0.6l2.7-2.7c0.2-0.2,0.4-0.2,0.6,0l2.7,2L9,4.6
		c0.1-0.2,0.4-0.2,0.6-0.1l3.1,2.1c0.2,0.1,0.3,0.4,0.1,0.6c-0.1,0.2-0.4,0.3-0.6,0.1L9.5,5.4L7,8.8C6.9,8.9,6.8,8.9,6.7,9
		C6.6,9,6.5,9,6.4,8.9l-2.7-2L1.2,9.3C1.1,9.4,1,9.4,0.9,9.4z"/>
	<rect x="0.4" y="13.8" fill="#F8B558" width="12.6" height="0.8"/>
	<rect x="0.4" y="16.9" fill="#F8B558" width="12.6" height="0.8"/>
</g>
</svg>
