<?xml version="1.0" encoding="utf-8"?>
<!DOCTYPE svg PUBLIC "-//W3C//DTD SVG 1.1//EN" "http://www.w3.org/Graphics/SVG/1.1/DTD/svg11.dtd">
<svg version="1.1" xmlns="http://www.w3.org/2000/svg" xmlns:xlink="http://www.w3.org/1999/xlink" x="0px" y="0px"
	 viewBox="0 0 25 34" enable-background="new 0 0 25 34" xml:space="preserve">
<g>
	<path fill="#F9B659" d="M24.1,20H0.9C0.4,20,0,19.6,0,19.1V0.9C0,0.4,0.4,0,0.9,0h23.2c0.5,0,0.9,0.4,0.9,0.9v18.3
		C24.9,19.6,24.5,20,24.1,20z M1.7,18.3h21.5V1.7H1.7V18.3z"/>

	<ellipse fill="#F9B659" cx="6.1" cy="6" rx="1.6" ry="1.7"/>
	<path fill="#F9B659" d="M1.4,17.6c-0.2,0-0.4-0.1-0.6-0.3c-0.3-0.3-0.3-0.9,0-1.2L6,10.8c0.3-0.3,0.8-0.3,1.1-0.1l5.2,3.8L17,8.2
		c0.3-0.4,0.8-0.5,1.2-0.2l6,4c0.4,0.3,0.5,0.8,0.2,1.2c-0.3,0.4-0.8,0.5-1.2,0.2l-5.3-3.5l-4.7,6.4c-0.1,0.2-0.3,0.3-0.6,0.3
		c-0.2,0-0.5,0-0.6-0.2l-5.3-3.9L2,17.3C1.8,17.5,1.6,17.6,1.4,17.6z"/>
	<rect x="0.7" y="26" fill="#F9B659" width="24.2" height="1.5"/>
	<rect x="0.7" y="31.9" fill="#F9B659" width="24.2" height="1.5"/>
</g>
</svg>
