<?xml version="1.0" encoding="utf-8"?>
<!DOCTYPE svg PUBLIC "-//W3C//DTD SVG 1.0//EN" "http://www.w3.org/TR/2001/REC-SVG-20010904/DTD/svg10.dtd">
<svg version="1.0" xmlns="http://www.w3.org/2000/svg" xmlns:xlink="http://www.w3.org/1999/xlink" x="0px" y="0px"
	 viewBox="0 0 12 9" enable-background="new 0 0 12 9" xml:space="preserve">
<g>
	<path fill="#F8B558" d="M5.1,1.2c-0.6,0.2-1.2,0.6-1.8,1c-0.5,0.4-0.9,1-1,1.7c0.8,0,1.5,0.2,2,0.6c0.6,0.4,0.8,1,0.8,1.9
		c0,0.7-0.3,1.3-0.8,1.7C3.9,8.5,3.3,8.7,2.6,8.7c-0.9,0-1.6-0.3-2-0.9C0.2,7.2,0,6.5,0,5.7c0-0.7,0.1-1.4,0.4-2
		c0.3-0.6,0.7-1.1,1.2-1.5c0.5-0.4,1-0.8,1.6-1.2c0.6-0.3,1.2-0.6,1.8-0.8V1.2z M11.9,1.2c-0.6,0.2-1.2,0.6-1.8,1
		c-0.5,0.4-0.9,1-1,1.7c0.8,0,1.5,0.2,2,0.6C11.7,5,12,5.6,12,6.4c0,0.7-0.3,1.3-0.8,1.7c-0.5,0.4-1.1,0.6-1.8,0.6
		c-0.9,0-1.6-0.3-2-0.9C7.1,7.2,6.8,6.5,6.8,5.7c0-0.7,0.1-1.4,0.4-2C7.6,3.2,8,2.6,8.4,2.2c0.5-0.4,1-0.8,1.6-1.2
		c0.6-0.3,1.2-0.6,1.8-0.8V1.2z"/>
</g>
</svg>
