<?xml version="1.0" encoding="utf-8"?>
<!DOCTYPE svg PUBLIC "-//W3C//DTD SVG 1.1//EN" "http://www.w3.org/Graphics/SVG/1.1/DTD/svg11.dtd">
<svg version="1.1" xmlns="http://www.w3.org/2000/svg" xmlns:xlink="http://www.w3.org/1999/xlink" x="0px" y="0px"
	 viewBox="0 0 48.4 42.8" enable-background="new 0 0 48.4 42.8" xml:space="preserve">
<g>
	<rect x="0" y="0" fill="#E3E3E3" width="48.4" height="1.5"/>
	<rect x="0" y="11.8" fill="#E3E3E3" width="12.5" height="1.5"/>
	<path fill="#F9B659" d="M30.6,15.7c-1,0.4-2,1-2.9,1.7c-0.9,0.7-1.4,1.7-1.7,2.8c1.3,0,2.4,0.3,3.3,0.9c0.9,0.6,1.4,1.6,1.4,3
				c0,1.2-0.4,2.1-1.2,2.8c-0.8,0.7-1.8,1-2.9,1c-1.5,0-2.5-0.5-3.2-1.5c-0.7-1-1-2.1-1-3.5c0-1.2,0.2-2.3,0.7-3.2
				c0.5-0.9,1.1-1.8,1.9-2.5c0.8-0.7,1.7-1.4,2.7-1.9c1-0.5,2-0.9,3-1.3V15.7z M41.7,15.7c-1,0.4-2,1-2.9,1.7
				c-0.9,0.7-1.4,1.7-1.7,2.8c1.3,0,2.4,0.3,3.3,0.9c0.9,0.6,1.4,1.6,1.4,3c0,1.2-0.4,2.1-1.2,2.8c-0.8,0.7-1.8,1-2.9,1
				c-1.5,0-2.5-0.5-3.2-1.5c-0.7-1-1-2.1-1-3.5c0-1.2,0.2-2.3,0.7-3.2c0.5-0.9,1.1-1.8,1.9-2.5c0.8-0.7,1.6-1.4,2.6-1.9
				c1-0.5,2-0.9,3-1.3V15.7z"/>
	<rect x="0" y="5.9" fill="#E3E3E3" width="48.4" height="1.5"/>
	<rect x="0" y="17.7" fill="#E3E3E3" width="12.5" height="1.5"/>
	<rect x="0" y="23.6" fill="#E3E3E3" width="12.5" height="1.5"/>
	<rect x="0" y="29.5" fill="#E3E3E3" width="12.5" height="1.5"/>
	<rect x="0" y="35.4" fill="#E3E3E3" width="48.4" height="1.5"/>
	<rect x="0" y="41.3" fill="#E3E3E3" width="48.4" height="1.5"/>
</g>
</svg>
