<?xml version="1.0" encoding="utf-8"?>
<!DOCTYPE svg PUBLIC "-//W3C//DTD SVG 1.1//EN" "http://www.w3.org/Graphics/SVG/1.1/DTD/svg11.dtd">
<svg version="1.1" xmlns="http://www.w3.org/2000/svg" xmlns:xlink="http://www.w3.org/1999/xlink" x="0px" y="0px"
	 viewBox="0 0 19 20.6" enable-background="new 0 0 19 20.6" xml:space="preserve">
<g>
	<path fill="#fbb74f" d="M15,7.9c-1.1,0-2.1-0.5-2.9-1.3L7.8,9.2c0.3,1,0.2,2-0.3,2.9l4.2,2.4c1.2-1.8,3.6-2.3,5.4-1.2
		s2.3,3.6,1.2,5.4c-1.2,1.8-3.6,2.3-5.4,1.2c-1.1-0.7-1.8-2-1.8-3.3c0-0.1,0-0.3,0-0.4l-4.7-2.7l0,0c-1.7,1.3-4.2,1.1-5.6-0.7
		s-1.1-4.2,0.7-5.6c1.6-1.3,4-1.1,5.4,0.5l4.4-2.5c-0.1-0.4-0.2-0.7-0.2-1.1c0-2.2,1.8-4,4-4s4,1.8,4,4S17.2,8,15,7.9L15,7.9z
		 M15,18.9c1.3,0,2.3-1.1,2.3-2.4s-1.1-2.3-2.4-2.3c-1.3,0-2.3,1.1-2.3,2.3C12.6,17.9,13.7,18.9,15,18.9C15,18.9,15,18.9,15,18.9z
		 M4.1,7.9C2.8,8,1.8,9,1.8,10.3c0,1.3,1.1,2.3,2.4,2.3c1.3,0,2.3-1.1,2.3-2.3C6.4,9,5.4,7.9,4.1,7.9z M15,1.7
		c-1.3,0-2.3,1.1-2.3,2.4s1.1,2.3,2.4,2.3c1.3,0,2.3-1,2.3-2.3C17.4,2.8,16.3,1.7,15,1.7C15,1.7,15,1.7,15,1.7z"/>
</g>
</svg>
