<svg xmlns="http://www.w3.org/2000/svg" viewBox="0 0 19 20.58"><defs></defs><title>Asset 10</title><g id="Layer_2" data-name="Layer 2"><g id="New_Dossier" data-name="New Dossier"><path class="cls-1" d="M15,7.92a3.93,3.93,0,0,1-2.9-1.28L7.73,9.15a3.72,3.72,0,0,1-.26,2.92l4.24,2.42a3.95,3.95,0,1,1-.63,2.13,3.89,3.89,0,0,1,0-.43L6.33,13.46l0,0a4,4,0,1,1,.51-5.81L11.27,5.1A3.92,3.92,0,0,1,11.08,4a4,4,0,1,1,4,4ZM15,19a2.37,2.37,0,1,0-2.38-2.37A2.37,2.37,0,0,0,15,19ZM4,7.92a2.37,2.37,0,1,0,2.38,2.37A2.38,2.38,0,0,0,4,7.92ZM15,1.58A2.38,2.38,0,1,0,17.42,4,2.38,2.38,0,0,0,15,1.58Z" fill="#fbb74f" fill-rule="evenodd"/></g></g></svg>