<?xml version="1.0" encoding="utf-8"?>
<!-- Generator: Adobe Illustrator 25.0.0, SVG Export Plug-In . SVG Version: 6.00 Build 0)  -->
<svg version="1.1" id="Layer_1" xmlns="http://www.w3.org/2000/svg" xmlns:xlink="http://www.w3.org/1999/xlink" x="0px" y="0px"
	 viewBox="0 0 512 512" style="enable-background:new 0 0 512 512;" xml:space="preserve">
<style type="text/css">
	.st0{fill:#F0B869;}
</style>
<g>
	<g>
		<path class="st0" d="M0,22.3v467.5h512V22.3H0z M155.8,456.3H33.4v-77.9h122.4L155.8,456.3L155.8,456.3z M155.8,345H33.4v-77.9
			h122.4L155.8,345L155.8,345z M155.8,233.7H33.4v-77.9h122.4L155.8,233.7L155.8,233.7z M322.8,456.3H189.2v-77.9h133.6L322.8,456.3
			L322.8,456.3z M322.8,345H189.2v-77.9h133.6L322.8,345L322.8,345z M322.8,233.7H189.2v-77.9h133.6L322.8,233.7L322.8,233.7z
			 M478.6,456.3H356.2v-77.9h122.4V456.3z M478.6,345H356.2v-77.9h122.4V345z M478.6,233.7H356.2v-77.9h122.4V233.7z M478.6,122.4
			H33.4V55.7h445.2L478.6,122.4L478.6,122.4z"/>
	</g>
</g>
</svg>