<?xml version="1.0" encoding="utf-8"?>
<!DOCTYPE svg PUBLIC "-//W3C//DTD SVG 1.1//EN" "http://www.w3.org/Graphics/SVG/1.1/DTD/svg11.dtd">
<svg version="1.1" xmlns="http://www.w3.org/2000/svg" xmlns:xlink="http://www.w3.org/1999/xlink" x="0px" y="0px"
	 viewBox="0 0 25.8 20.5" enable-background="new 0 0 25.8 20.5" xml:space="preserve">
<g>
	<path fill="none" stroke="#fbb74f" stroke-width="1.5" stroke-miterlimit="10" d="M4,0.9h17.8c1.7,0,3.1,1.4,3.1,3.1v12.5
		c0,1.7-1.4,3.1-3.1,3.1H4c-1.7,0-3.1-1.4-3.1-3.1V4C0.9,2.3,2.3,0.9,4,0.9z"/>
	<path fill="#fbb74f" d="M16.7,10.6l-5.4,3c-0.3,0.2-0.7,0.1-0.7-0.1V7.1c0-0.3,0.4-0.3,0.7-0.1l5.4,3C16.9,10,16.9,10.3,16.7,10.6
		C16.7,10.5,16.7,10.6,16.7,10.6z"/>
</g>
</svg>
