<svg viewBox="0 0 67.4047564 24.0731273" version="1.1" xmlns="http://www.w3.org/2000/svg">
    <g stroke="none" stroke-width="1" fill="none" fill-rule="evenodd">
        <g fill-rule="nonzero">
            <polygon fill="#D41F26" points="12.2552839 18.0518947 12.2552839 24.0731273 18.3810046 18.0518947 67.4047564 18.0518947 67.4047564 0 9.19136073 0 0 18.0518947" />
            <path fill="#FEFEFE" d="M18.1839814,12.0134199 L19.2188905,12.0134199 L19.2188905,6.09806119 L18.1840642,6.09806119 L18.1839814,12.0134199 Z M19.3604434,4.80731876 C19.3604434,5.16388743 19.0381829,5.42165835 18.6892674,5.42165835 C18.3530171,5.42165835 18.0548455,5.16388743 18.0548455,4.80731876 C18.0548455,4.42660126 18.3530171,4.18039346 18.6892674,4.18039346 C19.0381829,4.18039346 19.3604434,4.42660126 19.3604434,4.80731876 Z M21.4425957,7.97962368 L21.4425957,12.0134199 L20.3941936,12.0134199 L20.3941936,6.08563281 L21.2206639,6.08563281 L21.3639552,6.68935321 C21.5964827,6.17200219 22.0992853,6.0496849 22.4487803,6.02451349 C23.5730084,5.96315819 24.5043603,6.96010314 24.5043603,7.97962368 L24.5043603,12.0134199 L23.4564549,12.0134199 L23.4564549,7.97962368 C23.4564549,7.46329525 22.992807,7.02043585 22.4364461,7.02043585 C21.8935783,7.02043585 21.4426785,7.46329525 21.4426785,7.97962368 M26.6303029,12.0224659 L25.5963872,12.0224659 L25.5963872,5.59046408 C25.5963872,4.44697437 26.7461942,3.61096909 28.0517921,3.61096909 L28.0517921,4.59477771 C27.290552,4.59477771 26.6303029,5.04982951 26.6303029,5.59046408 L26.6303029,7.41059262 L27.9102392,7.41059262 L27.9102392,8.39416525 L26.6303029,8.39416525 L26.6303029,12.0224659 Z M32.1430852,7.97655592 C32.1430852,7.34931598 31.6135448,7.01721076 31.0837562,7.01721076 C30.5667155,7.01721076 30.024096,7.34931598 30.024096,7.97655592 L30.024096,10.1273738 C30.024096,10.755479 30.5667155,11.0749985 31.0836734,11.0749985 C31.613462,11.0749985 32.1431679,10.755479 32.1431679,10.1273738 L32.1430852,7.97655592 Z M33.1899145,10.1273738 C33.1899145,11.4439169 32.1305027,12.0835852 31.0837562,12.0835852 C30.024096,12.0835852 28.9900975,11.4439169 28.9900975,10.1273738 L28.9900975,7.97655592 C28.9900975,6.64852834 30.0369268,6.03363812 31.0837562,6.03363812 C32.1431679,6.03363812 33.1899145,6.64852834 33.1899145,7.97655592 L33.1899145,10.1273738 Z M35.3355586,10.2271155 C35.2977284,10.8044059 35.853427,11.0620982 36.3949704,11.0620982 C36.8862666,11.0620982 37.3775628,10.7425786 37.3775628,10.2393079 L37.3775628,7.8289099 C37.3775628,7.3860505 36.8347777,7.04253949 36.3693087,7.02956048 C35.8392717,7.02956048 35.3355586,7.3738581 35.3355586,7.86548709 L35.3355586,10.2271155 Z M36.3429849,14.4438764 C35.8927473,14.4438764 35.2068365,14.2105689 34.702875,13.779194 L35.2977284,12.9930595 C35.6713949,13.287329 36.0985371,13.4357616 36.3429849,13.4357616 C36.9116799,13.4357616 37.3775628,13.0174443 37.3775628,12.5009586 L37.3775628,11.4562666 C37.1977658,11.9359392 36.6805596,12.0588858 36.3693087,12.0588858 C35.2842353,12.0588858 34.2889776,11.3818537 34.2889776,10.2271155 L34.2889776,7.86548709 C34.2889776,6.88175714 35.2977284,5.9469541 36.369226,6.03355946 C36.7831234,6.07037264 37.3004123,6.21856929 37.468703,6.78476857 L37.5709357,6.09475744 L38.4239782,6.09475744 L38.4239782,12.5009586 C38.4239782,13.6202995 37.4547961,14.4438764 36.3429849,14.4438764 L36.3429849,14.4438764 Z M39.5790003,12.0289161 L39.5790003,6.13896472 L40.4446253,6.13896472 L40.5612616,6.74158388 C40.923339,5.86774284 41.9181828,5.85555044 42.6160966,6.38509386 L42.2543503,7.28221845 C41.646335,6.87593625 40.7163076,6.9757566 40.613661,7.78564655 L40.613661,12.0289161 L39.5790003,12.0289161 Z M45.0348303,11.094585 C45.5252987,11.094585 46.0422565,10.7134742 46.0422565,10.2714801 L46.0422565,9.66941154 C46.0422565,9.1770746 45.5914395,8.83277698 45.0348303,8.83277698 C44.4922108,8.83277698 44.0389931,9.25195952 44.0389931,9.77977242 L44.0389931,10.1230474 C44.0389931,10.6533775 44.4922108,11.094585 45.0348303,11.094585 M42.992826,10.1230474 L42.992826,9.77977242 C42.992826,8.74727286 43.8201242,7.86100344 45.0085064,7.86100344 C45.4232316,7.86100344 45.9263653,8.11979694 46.0688287,8.51388675 L46.0423393,7.9967717 C46.0423393,7.48052193 45.5914395,7.0496976 45.034913,7.0496976 C44.7766411,7.0496976 44.402395,7.19742228 44.0514928,7.5169418 L43.4847845,6.69391553 C43.9238469,6.31225411 44.5304549,6.04229079 45.0348303,6.04229079 C46.1336451,6.04229079 47.0888375,6.91424398 47.0888375,7.9967717 L47.0888375,12.0180609 L46.2506125,12.0180609 L46.1455653,11.3890904 C46.0165949,11.9080933 45.3571735,12.0912153 45.0348303,12.0912153 C43.9239296,12.0912153 42.992826,11.1816623 42.992826,10.1230474 M49.2683384,12.0179822 L48.2356644,12.0179822 L48.2356644,6.10285949 L49.0479794,6.10285949 L49.1782743,6.68109385 C49.4371258,6.20181457 49.9150117,6.04229079 50.2895061,6.02899715 C50.8068778,6.01704073 51.4906363,6.25019086 51.8126485,7.01304175 C52.1240649,6.25019086 52.7567485,6.02899715 53.352678,6.02899715 C54.4635786,6.02899715 55.3681927,6.89025249 55.3681927,7.984186 L55.3681927,12.0179822 L54.3333665,12.0179822 L54.3333665,7.984186 C54.3476873,6.64412335 52.3178517,6.70547865 52.3178517,7.984186 L52.3178517,12.0179822 L51.2841015,12.0179822 L51.2841015,7.984186 C51.2841015,7.46785756 50.8321256,7.02523414 50.2629339,7.02523414 C49.7074836,7.02523414 49.2683384,7.46785756 49.2683384,7.98410734 L49.2683384,12.0179822 Z" />
        </g>
    </g>
</svg>
