<?xml version="1.0" encoding="utf-8"?>
<!-- Generator: Adobe Illustrator 17.1.0, SVG Export Plug-In . SVG Version: 6.00 Build 0)  -->
<!DOCTYPE svg PUBLIC "-//W3C//DTD SVG 1.0//EN" "http://www.w3.org/TR/2001/REC-SVG-20010904/DTD/svg10.dtd">
<svg version="1.0" id="Layer_1" xmlns="http://www.w3.org/2000/svg" xmlns:xlink="http://www.w3.org/1999/xlink" x="0px" y="0px"
	 viewBox="0 0 15 10" enable-background="new 0 0 15 10" xml:space="preserve">
<g>
	<g>
		<path fill="#F8B558" d="M0.1,4.8l4.2-2.5v1.1c0,0.1,0,0.2-0.1,0.2c0,0.1-0.1,0.1-0.2,0.2L2.1,4.9C2.1,5,2,5,1.9,5
			c-0.1,0-0.2,0.1-0.3,0.1c0.1,0,0.2,0.1,0.3,0.1c0.1,0,0.2,0.1,0.3,0.1L4,6.5c0.1,0,0.1,0.1,0.2,0.2c0,0.1,0.1,0.1,0.1,0.2V8
			L0.1,5.4V4.8z"/>
		<path fill="#F8B558" d="M6.6,9.3c0,0.1-0.1,0.2-0.1,0.2c0,0.1-0.1,0.1-0.2,0.2c-0.1,0-0.1,0.1-0.2,0.1c-0.1,0-0.1,0-0.2,0H5.4
			l3.1-9.2c0.1-0.2,0.1-0.3,0.3-0.4c0.1-0.1,0.2-0.1,0.4-0.1h0.6L6.6,9.3z"/>
		<path fill="#F8B558" d="M10.7,8V6.9c0-0.1,0-0.2,0.1-0.2c0-0.1,0.1-0.1,0.2-0.2l1.9-1.1c0.2-0.1,0.3-0.2,0.5-0.2
			c-0.1,0-0.2-0.1-0.3-0.1S12.9,5,12.9,4.9L11,3.8c-0.1,0-0.1-0.1-0.2-0.2c0-0.1-0.1-0.1-0.1-0.2V2.3l4.2,2.5v0.6L10.7,8z"/>
	</g>
</g>
</svg>
