<?xml version="1.0" encoding="utf-8"?>
<!DOCTYPE svg PUBLIC "-//W3C//DTD SVG 1.1//EN" "http://www.w3.org/Graphics/SVG/1.1/DTD/svg11.dtd">
<svg version="1.1" xmlns="http://www.w3.org/2000/svg" xmlns:xlink="http://www.w3.org/1999/xlink" x="0px" y="0px"
	 viewBox="0 0 14 14" enable-background="new 0 0 14 14" xml:space="preserve">
<g>
	<mask id="cut-person">
		<rect id="bg" x="0" y="0" width="100%" height="100%" fill="white"/>
		<path d="M9.1,10.3H4.9c-0.4,0-1-0.7-1-1V8.6c0,0,0.1-0.9,1.9-1.3
			C5.5,6.9,5.3,6.4,5.3,5.8C5.3,4.6,6,3.7,7,3.7c1,0,1.7,0.9,1.7,2.1c0,0.6-0.2,1.1-0.5,1.5c1.8,0.4,1.9,1.3,1.9,1.3v0.7
			C10.1,9.6,9.5,10.3,9.1,10.3z M7,4.4C6.4,4.4,6,5,6,5.8c0,0.8,0.5,1.4,1,1.4c0.6,0,1-0.6,1-1.4C8,5,7.6,4.4,7,4.4z M9.4,8.9
			V8.6C9,8.1,8.1,7.9,7,7.9c-1.1,0-2,0.3-2.4,0.7v0.3v0.3c0,0.2,0.5,0.5,0.7,0.5h3.5c0.2,0,0.7-0.3,0.7-0.5V8.9z"/>
	</mask>
	<circle fill="#F8B558" cx="7" cy="7" r="7" mask="url(#cut-person)"/>
</g>
</svg>
