<?xml version="1.0" encoding="utf-8"?>
<!DOCTYPE svg PUBLIC "-//W3C//DTD SVG 1.1//EN" "http://www.w3.org/Graphics/SVG/1.1/DTD/svg11.dtd">
<svg version="1.1" xmlns="http://www.w3.org/2000/svg" xmlns:xlink="http://www.w3.org/1999/xlink" x="0px" y="0px"
	 viewBox="0 0 46.4 26" enable-background="new 0 0 46.4 26" xml:space="preserve">
<g>
	<path fill="#C8C8C8" d="M45.3,2.2h-6.6c0,0.8,0,1.5,0,2.3h5.5v17h-5.5c0,0.8,0,1.5,0,2.3h6.6c0.6,0,1.1-0.5,1.1-1.1V3.4
		C46.4,2.7,45.9,2.2,45.3,2.2z"/>

	<path fill="#C8C8C8" d="M1.1,23.8h6.6c0-0.8,0-1.5,0-2.3H2.3v-17h5.5c0-0.8,0-1.5,0-2.3H1.1C0.5,2.2,0,2.7,0,3.4v19.3
								C0,23.3,0.5,23.8,1.1,23.8z"/>
	<path fill="#F9B659" d="M38.5,26H8.3c-0.6,0-1.1-0.5-1.1-1.1V1.1C7.2,0.5,7.7,0,8.3,0h30.1c0.6,0,1.1,0.5,1.1,1.1v23.7
							C39.6,25.5,39.1,26,38.5,26z M9.4,23.7h27.9V2.3H9.4V23.7z"/>
	<ellipse fill="#F9B659" cx="15.1" cy="7.8" rx="2.1" ry="2.2"/>
	<path fill="#F9B659" d="M8.7,22.8c-0.3,0-0.6-0.1-0.8-0.3c-0.4-0.4-0.4-1.2,0-1.6l6.8-6.8c0.4-0.4,1-0.5,1.5-0.1l6.7,5l6.1-8.3
		c0.4-0.5,1-0.6,1.5-0.3l7.8,5.2c0.5,0.3,0.7,1.1,0.3,1.6c-0.3,0.5-1.1,0.7-1.6,0.3l-6.9-4.6L24,21.2c-0.2,0.2-0.4,0.4-0.7,0.4
		c-0.3,0-0.6,0-0.8-0.2l-6.9-5.1l-6.1,6.1C9.2,22.7,9,22.8,8.7,22.8z"/>
</g>
</svg>
